<svg id="Layer_1" data-name="Layer 1" xmlns="http://www.w3.org/2000/svg" viewBox="0 0 80 80"><defs><style>.cls-1,.cls-2{fill:#f28c46;}.cls-1{opacity:0.4;}</style></defs><title>drawco_flashtopup</title><path class="cls-1" d="M58.56,36.48H21.66A18.45,18.45,0,1,0,34.83,67.84H45.38A18.45,18.45,0,1,0,58.56,36.48Z"/><path class="cls-2" d="M32.73,57.23a1.38,1.38,0,0,1-1.38,1.39h-6v6A1.39,1.39,0,0,1,24,66H19.36A1.4,1.4,0,0,1,18,64.61v-6H12a1.39,1.39,0,0,1-1.39-1.39V52.62A1.39,1.39,0,0,1,12,51.24h6v-6a1.39,1.39,0,0,1,1.39-1.38H24a1.38,1.38,0,0,1,1.38,1.38v6h6a1.38,1.38,0,0,1,1.38,1.38Z"/><circle class="cls-2" cx="53.95" cy="59.54" r="5.53"/><circle class="cls-2" cx="63.17" cy="50.32" r="5.53"/><path class="cls-2" d="M40,5.5A13.75,13.75,0,1,0,53.75,19.25,13.76,13.76,0,0,0,40,5.5Zm7.72,16.19-5.24.08v5.61a2.41,2.41,0,1,1-4.81,0V21.84l-5.32.08h0a2.41,2.41,0,0,1,0-4.81L37.67,17v-5.9a2.41,2.41,0,1,1,4.81,0V17l5.17-.08h0a2.41,2.41,0,0,1,0,4.82Z"/></svg>