<svg xmlns="http://www.w3.org/2000/svg" xmlns:xlink="http://www.w3.org/1999/xlink" viewBox="0 0 1927.46 2069.47"><defs><clipPath id="a"><polygon points="2214.07 -211.6 -286.61 -211.6 -286.61 1060.56 9.04 1060.56 5.63 1064.12 959.46 2069.47 1921.83 1064.12 1918.39 1060.56 2214.07 1060.56 2214.07 -211.6" style="fill:none"/></clipPath><clipPath id="b"><rect x="768.53" y="396.87" width="397.3" height="506.59" rx="14.17" ry="14.17" style="fill:none"/></clipPath><pattern id="c" width="519.5" height="519.5" patternTransform="translate(-939.8 -817.43) scale(1.5)" patternUnits="userSpaceOnUse" viewBox="0 0 519.5 519.5"><rect width="519.5" height="519.5" style="fill:none"/><rect width="519.5" height="519.5" style="fill:#e9a662"/></pattern><pattern id="d" width="519.5" height="519.5" patternTransform="matrix(0.26, -0.01, 0.01, 0.14, -1378.84, -645.86)" patternUnits="userSpaceOnUse" viewBox="0 0 519.5 519.5"><rect width="519.5" height="519.5" style="fill:none"/><rect width="519.5" height="519.5" style="fill:#e9a662"/></pattern><pattern id="e" width="519.5" height="519.5" patternTransform="translate(-1032.78 -836.08) scale(1.5)" patternUnits="userSpaceOnUse" viewBox="0 0 519.5 519.5"><rect width="519.5" height="519.5" style="fill:none"/><rect width="519.5" height="519.5" style="fill:#e9a662"/></pattern><pattern id="f" width="519.5" height="519.5" patternTransform="matrix(0.26, -0.01, 0.01, 0.14, -1577.77, -697.78)" patternUnits="userSpaceOnUse" viewBox="0 0 519.5 519.5"><rect width="519.5" height="519.5" style="fill:none"/><rect width="519.5" height="519.5" style="fill:#e9a662"/></pattern></defs><title>Homepage Logo</title><g style="clip-path:url(#a)"><path d="M897,132.72a86.06,86.06,0,0,1,124.74-.28l837.34,867.15c34.38,35.61,34.51,94,.28,129.76l-837.9,875.33c-34.23,35.76-90.11,35.63-124.18-.28L67.39,1129.62c-34.07-35.91-33.94-94.55.28-130.31Z" style="fill:#ed6c27"/><rect x="223.08" y="384.5" width="422.81" height="532.1" rx="26.93" ry="26.93" style="fill:#fff"/><path d="M619,397.25a14.21,14.21,0,0,1,14.17,14.17V889.67A14.21,14.21,0,0,1,619,903.84H250a14.21,14.21,0,0,1-14.17-14.17V411.43A14.21,14.21,0,0,1,250,397.25H619m0-25.51H250a39.73,39.73,0,0,0-39.68,39.68V889.67A39.73,39.73,0,0,0,250,929.35H619a39.73,39.73,0,0,0,39.69-39.68V411.43A39.73,39.73,0,0,0,619,371.74Z" style="fill:#e9a662"/><rect x="761.96" y="1024.29" width="422.81" height="532.1" rx="26.93" ry="26.93" style="fill:#fff"/><path d="M1157.84,1037a14.21,14.21,0,0,1,14.17,14.17v478.24a14.21,14.21,0,0,1-14.17,14.17h-369a14.21,14.21,0,0,1-14.17-14.17V1051.22A14.21,14.21,0,0,1,788.89,1037h369m0-25.51h-369a39.73,39.73,0,0,0-39.68,39.68v478.24a39.73,39.73,0,0,0,39.68,39.68h369a39.73,39.73,0,0,0,39.68-39.68V1051.22a39.73,39.73,0,0,0-39.68-39.68Z" style="fill:#e9a662"/><rect x="1286" y="384.5" width="422.81" height="532.1" rx="26.93" ry="26.93" style="fill:#fff"/><path d="M1681.88,397.25A14.22,14.22,0,0,1,1696,411.43V889.67a14.22,14.22,0,0,1-14.17,14.17h-369a14.21,14.21,0,0,1-14.17-14.17V411.43a14.21,14.21,0,0,1,14.17-14.17h369m0-25.51h-369a39.73,39.73,0,0,0-39.68,39.68V889.67a39.73,39.73,0,0,0,39.68,39.68h369a39.73,39.73,0,0,0,39.69-39.68V411.43a39.73,39.73,0,0,0-39.69-39.68Z" style="fill:#e9a662"/><rect x="223.08" y="1025.14" width="422.81" height="532.1" rx="26.93" ry="26.93" style="fill:#fff"/><path d="M619,1037.9a14.21,14.21,0,0,1,14.17,14.17v478.24A14.21,14.21,0,0,1,619,1544.49H250a14.21,14.21,0,0,1-14.17-14.17V1052.07A14.21,14.21,0,0,1,250,1037.9H619m0-25.51H250a39.73,39.73,0,0,0-39.68,39.68v478.24A39.73,39.73,0,0,0,250,1570H619a39.73,39.73,0,0,0,39.69-39.68V1052.07A39.73,39.73,0,0,0,619,1012.39Z" style="fill:#e9a662"/><rect x="1286" y="1025.14" width="422.81" height="532.1" rx="26.93" ry="26.93" style="fill:#fff"/><path d="M1681.88,1037.9a14.21,14.21,0,0,1,14.17,14.17v478.24a14.22,14.22,0,0,1-14.17,14.17h-369a14.21,14.21,0,0,1-14.17-14.17V1052.07a14.21,14.21,0,0,1,14.17-14.17h369m0-25.51h-369a39.73,39.73,0,0,0-39.68,39.68v478.24a39.73,39.73,0,0,0,39.68,39.68h369a39.73,39.73,0,0,0,39.69-39.68V1052.07a39.73,39.73,0,0,0-39.69-39.68Z" style="fill:#e9a662"/><rect x="753.3" y="381.64" width="422.81" height="532.1" rx="26.93" ry="26.93" style="fill:#e9a662"/><path d="M1149.18,394.39a14.21,14.21,0,0,1,14.17,14.17V886.81A14.21,14.21,0,0,1,1149.18,901h-369a14.21,14.21,0,0,1-14.17-14.17V408.57a14.21,14.21,0,0,1,14.17-14.17h369m0-25.51h-369a39.73,39.73,0,0,0-39.68,39.68V886.81a39.73,39.73,0,0,0,39.68,39.68h369a39.73,39.73,0,0,0,39.69-39.68V408.57a39.73,39.73,0,0,0-39.69-39.68Z" style="fill:#fff"/><g style="clip-path:url(#b)"><rect x="761.45" y="389.78" width="411.47" height="520.76" rx="21.26" ry="21.26" style="fill:url(#c)"/><path d="M1151.66,396.87A14.21,14.21,0,0,1,1165.83,411V889.28a14.21,14.21,0,0,1-14.17,14.17h-369a14.21,14.21,0,0,1-14.17-14.17V411a14.21,14.21,0,0,1,14.17-14.17h369m0-14.17h-369A28.38,28.38,0,0,0,754.36,411V889.28a28.38,28.38,0,0,0,28.35,28.35h369A28.38,28.38,0,0,0,1180,889.28V411a28.38,28.38,0,0,0-28.35-28.35Z" style="fill:#fff"/><path d="M807.78,629.27c-4.2-1.35-5.78-.27-4.89,4.12,1.82,8.89,13.34,19.31,22,19.85,11.61.73,23.27-6.45,26.09-17.13,1.71-6.49,2-13.4,2.48-20.15.39-5.24,1.05-9.93,6.69-12.29,1-.43,1.71-2,2.28-3.14,3.4-6.85,6.72-13.73,10.72-21.95-4.25-7.85-19.08-7.31-27.3-2.54-14.27,8.29-20.14,20.74-18.5,37.25C829,630.12,823.58,634.35,807.78,629.27Z" style="fill:#fff"/><path d="M815.78,824.91c-.16-6.29,1.45-12.63,2.4-19.76a48.43,48.43,0,0,1-5.2,1.63c-7.61,1.47-15.2,3.66-22.87,4-10.59.53-16.19-6.23-15.21-16.82a87.61,87.61,0,0,1,1.47-8.86c4.58-23.16-3.34-42.56-21.93-51.52-19.49-9.39-39.06-6.62-59.8,1.14,6.26,1.76,11.3,2.83,16.1,4.58,22.31,8.13,29.81,24.19,21.91,46.51a23.05,23.05,0,0,0-1.42,3.93c-1.24,8-3.81,16.11-3.24,24,1.84,25.79,23.43,42.86,48.33,38.9,12.53-2,23-8.61,33.14-16C813.58,833.64,815.92,830.55,815.78,824.91Z" style="fill:#fff"/><path d="M1095,715.27c-26.51,13.28-54,16.39-82.72,12.44l-.91-12.33c4.94.39,9.13.75,13.31,1,21.95,1.47,43.1-1.57,62.95-11.5,1.59-.8,4-2.66,3.87-3.71-.65-4.58-1.38-8.76-6.63-11.67a108.21,108.21,0,0,1-22-16.09c-5.9-5.62-8.31-13.68-8-22,.07-1.84,2.74-3.58,4.21-5.36,1.39,1.38,3.92,2.71,4,4.16.86,16.54,11.46,25.24,25,31.57,5.24,2.45,10.87,4.06,16.07,6.57,5.65,2.73,10.56,6.2,11.84,13.28.87,4.77,5.14,6.16,9.37,5.39a50.93,50.93,0,0,0,11.82-4c5.39-2.46,7.94-6.93,6.18-12.76-2.47-8.19-4.85-16.5-8.43-24.22-2.69-5.81-3.73-11.39-2.31-17.38a38.09,38.09,0,0,0-5-29.91c-2.42-3.91-5.21-7.65-7.14-11.78a14.73,14.73,0,0,1-1.38-8.6c1.42-6.74,3.71-13.29,5.71-20.1a47.23,47.23,0,0,0-5.15-1.27c-6.35-.79-12.7-1.84-19.08-2.12-35.38-1.58-63.82,10.63-82.38,42.05-8.22,13.92-13.25,29-16.62,44.75-.76,3.54-1.56,7.07-2.67,12-2.31-4.47-3.73-7.54-5.45-10.43-1.54-2.59-3.41-5-5.13-7.45l-1.21.79a4.68,4.68,0,0,1-.07-1.18q17-87.38,34.07-174.75c2.87-14.71,5.93-29.38,8.49-44.15.32-1.87-1.83-4.17-2.84-6.27-1.86,1.37-4,2.5-5.49,4.21-.93,1.07-1,3-1.18,4.58-.43,5-2.69,5.58-7.6,5a321,321,0,0,0-38.69-3c-9.26-.05-15.59,4.63-18.43,14.73-5.21,18.47-17.55,31.07-35.69,37.72-13.71,5-27.91,5.31-42.06,3.15-14.8-2.26-29.39-5.9-44.19-8.21-12.5-1.95-25.16-3.18-37.78.07,19.61-.8,38,3.66,56,11.26,9.71,4.11,20,6.79,30.09,10.06,1.9.62,3.91.93,6.32,1.48-.95.85-1.19,1.26-1.5,1.32-1.18.21-2.38.31-3.57.45-14.61,1.62-28.68-.93-42.5-5.49a126.92,126.92,0,0,0-40.9-6.35c11,3.57,24,6.59,35.95,11.86,30.62,13.47,62.07,14.26,94,7.67,15.78-3.25,26.39-13,29.23-29.59.67-3.93.81-8,1.09-12,.68-9.64,4.16-13.17,13.95-13.23,12.43-.08,23.83,4.17,35.8,8.92L953.24,662c-9.87-4.08-19.2-8.11-28.67-11.76-4-1.54-6.35-3.76-6.34-8.39,11.34-3.75,19.62-10.59,22.41-22.76,1.77-7.76,1.11-8.83-6.51-10.23-2-.36-3.94-.68-5.91-1l-19.66-3.49,20.1-15.42c-12-12.76-35.08-14.17-48.72-3.41-15.65,12.35-14.2,36,3.67,48.81,5.64,4,6,8,4.21,13.61-3,9.12-6.09,18.19-8.64,27.43-1.51,5.5-2,11.26-3.22,18L861,696c1.78,11,2.88,21.57,5.34,31.81a137,137,0,0,0,8.7,24.83c16.18,35.38,42.71,57.66,81.88,63.75,7.74,1.2,14.54.92,19.93-5.68,1.85-2.27,4.33-4,6.52-6-5,17.8-13.45,33.2-28.44,45.95-1.7-10.48-2-19.86-8-27.92-1.89,19.15-15.58,27.38-30.3,35.39L912,833.49c-8.41,15.5-21.77,21.85-35.83,30,1.92-4.76,3.2-7.7,4.29-10.7,6-16.65,6.83-32.53-4.69-47.75-6.54-8.64-7.46-19.23-6-29.87.56-4.14,1.44-8.24,2.34-13.27-19.88,10.4-35.26,23.39-41.59,44.7-6.19,20.85-2.22,40.78,6.05,60.16,1.4,3.28,1.44,5.69-.31,8.84-8.84,15.9-17.31,32-26.18,47.89-1.93,3.45-1.84,5.89.23,9.23,8.43,13.59,16.33,27.52,24.83,41.07,4.37,7,7.92,13.77,5.69,22.32-.47,1.82-.07,3.88-.07,6H873.8l-34-71.4c24.23-6.8,39.59-22.67,53-41.18a15.36,15.36,0,0,1,7.85-5.46c18.91-5,38-9.28,56.91-14.49,36.2-10,71.28-22.63,101.27-46.32a5.23,5.23,0,0,1,3.74-1c15.16,3,30.28,6.19,46.17,9.48l-14.59,21.89L1120,865.55l11.13-42.15-51.07-30.17C1099.5,769.76,1102.89,743.81,1095,715.27ZM964.51,790.61a11.29,11.29,0,0,1-8.31,2.48c-31.36-4.76-50.79-24.22-62.62-52.3-3.53-8.37-5.59-17.36-8.52-26.67,18.71-3.57,34.24-9.61,43.71-26,16.87,8.4,33.11,4.88,50.82-2.83,2.82,10.12,6.34,19.82,8.16,29.83C993,744.15,986.58,769.95,964.51,790.61Z" style="fill:#fff"/><path d="M956.91,978.09c-5.94-5.29-11-11.62-16.37-17.51-7.75-8.43-15.49-16.88-23.42-25.54,19.42-12.46,30.33-29.75,35.37-52.3-15.63,4.06-30.24,7.8-44.78,11.77-1,.28-1.87,2.18-2.34,3.49-2.49,6.93-4.38,14.1-7.34,20.81-3,6.87-7.08,13.29-10.84,20.2,15.64,13.94,30.88,28.08,46.78,41.41,6.57,5.51,10.29,10.54,5.35,18.77-.43.72-.15,1.86-.22,3.14h29.79C966.17,993,964.14,984.53,956.91,978.09Z" style="fill:#fff"/><path d="M1161.59,790.47c-1.58-14.76-10.51-26.07-18.7-37.62-.63-.89-2.81-1.29-4.07-1q-14.64,3.11-29.18,6.67a5.44,5.44,0,0,0-3.48,2.59c-3.71,9.92-7.16,19.95-10.64,29.78,7.25-3.51,15.11-7.3,23-11.14,10.15-5,10-4.83,18.51,2.92,2.64,2.41,2.77,4.22,1.17,7.12-2.75,5-5.15,10.18-7.82,15.53l25.87,16.52C1160,811.39,1162.74,801.21,1161.59,790.47Z" style="fill:#fff"/><path d="M1088.64,647.48c-3.2-1.17-3.53-9.32,11-10.51,8.34-.68,13.25,4.55,11.21,7.93-.92,1.52-3.34-1.81-10-1.32C1092.68,644.18,1090.39,648.13,1088.64,647.48Z" style="fill:url(#d)"/><ellipse cx="1093.31" cy="640.34" rx="4.41" ry="1.67" transform="translate(-136.85 336.91) rotate(-16.5)" style="fill:#fff"/><path d="M1102.85,689.33s-22.71-13.32-22.15-24.09c-1.4.47.6,15.12,8.67,18.47C1098.17,687.37,1102.85,689.33,1102.85,689.33Z" style="fill:url(#e)"/><path d="M889.7,595.57c-3.2-1.17-3.53-9.32,11-10.51,8.34-.68,13.25,4.55,11.21,7.93-.92,1.52-3.34-1.81-10-1.32C893.75,592.26,891.46,596.21,889.7,595.57Z" style="fill:url(#f)"/><ellipse cx="895.84" cy="588.31" rx="4.14" ry="2.26" transform="translate(-130.21 278.68) rotate(-16.5)" style="fill:#fff"/></g><path d="M689.23,864.85a9.91,9.91,0,0,1-5-1.37l-58.1-34.15a9.92,9.92,0,0,1-3.53-13.58l60-102.11-76-44.68a9.92,9.92,0,0,1,.18-17.21L828.5,527.53A9.92,9.92,0,0,1,843.26,536l5.49,257.79a9.92,9.92,0,0,1-14.95,8.76l-76-44.68L697.78,860a9.92,9.92,0,0,1-8.55,4.89Z" style="fill:#fff"/><path d="M833.34,536.18,838.84,794l-84.57-49.71-65,110.66-58.1-34.15,65-110.66L611.6,660.41,833.34,536.18m0-19.84a19.83,19.83,0,0,0-9.7,2.53L601.9,643.1a19.84,19.84,0,0,0-.36,34.42L669,717.17l-55,93.55a19.84,19.84,0,0,0,7.05,27.16L679.17,872A19.84,19.84,0,0,0,706.33,865l55-93.55,67.46,39.65a19.84,19.84,0,0,0,29.89-17.53l-5.49-257.79a19.84,19.84,0,0,0-19.84-19.42Z" style="fill:#409dd7"/><path d="M981.49,2020.38a106.38,106.38,0,0,0,53.87-30.55l808.34-844.45c41.46-43.31,50.39-102.84,10.5-147.12,0,0,3.3,2.06-.41.41C1856.26,1087.78,981.49,2020.38,981.49,2020.38Z" style="fill:#353535;opacity:0.09"/><path d="M949,2025.19a106.38,106.38,0,0,1-53.87-30.55L86.81,1150.2c-41.46-43.31-50.39-102.84-10.5-147.12,0,0-3.3,2.06.41.41C74.24,1092.59,949,2025.19,949,2025.19Z" style="fill:#353535;opacity:0.09"/></g><line x1="1257.65" y1="188.59" x2="1229.46" y2="240.04" style="fill:none;stroke:#ed6b26;stroke-linecap:round;stroke-miterlimit:10;stroke-width:28.34645652771px"/><line x1="1338.02" y1="280.18" x2="1291.99" y2="293.63" style="fill:none;stroke:#ed6b26;stroke-linecap:round;stroke-miterlimit:10;stroke-width:28.34645652771px"/><line x1="1140.4" y1="171.93" x2="1153.84" y2="217.95" style="fill:none;stroke:#ed6b26;stroke-linecap:round;stroke-miterlimit:10;stroke-width:28.34645652771px"/></svg>